<svg width="104" height="40" viewBox="0 0 104 40" fill="none" xmlns="http://www.w3.org/2000/svg">
<rect width="40" height="40" rx="20" fill="url(#paint0_linear_979_5964)"/>
<rect width="40" height="40" rx="20" fill="url(#paint1_linear_979_5964)"/>
<path opacity="0.2" d="M17 25C17 25.9889 16.7068 26.9556 16.1573 27.7779C15.6079 28.6001 14.827 29.241 13.9134 29.6194C12.9998 29.9978 11.9945 30.0969 11.0246 29.9039C10.0546 29.711 9.16373 29.2348 8.46447 28.5355C7.76521 27.8363 7.289 26.9454 7.09608 25.9755C6.90315 25.0055 7.00217 24.0002 7.3806 23.0866C7.75904 22.173 8.39991 21.3921 9.22215 20.8427C10.0444 20.2932 11.0111 20 12 20C13.3261 20 14.5979 20.5268 15.5355 21.4645C16.4732 22.4021 17 23.6739 17 25ZM28 20C27.0111 20 26.0444 20.2932 25.2222 20.8427C24.3999 21.3921 23.759 22.173 23.3806 23.0866C23.0022 24.0002 22.9031 25.0055 23.0961 25.9755C23.289 26.9454 23.7652 27.8363 24.4645 28.5355C25.1637 29.2348 26.0546 29.711 27.0245 29.9039C27.9945 30.0969 28.9998 29.9978 29.9134 29.6194C30.8271 29.241 31.6079 28.6001 32.1574 27.7779C32.7068 26.9556 33 25.9889 33 25C33 23.6739 32.4732 22.4021 31.5355 21.4645C30.5979 20.5268 29.3261 20 28 20Z" fill="#FEFEFE"/>
<path d="M33.65 22.9842C33.5665 22.7512 33.4684 22.5237 33.3563 22.303L28.1575 10.4755C28.1083 10.3616 28.0379 10.2581 27.95 10.1705C27.5786 9.79896 27.1376 9.50424 26.6522 9.30316C26.1668 9.10209 25.6466 8.99859 25.1213 8.99859C24.5959 8.99859 24.0757 9.10209 23.5903 9.30316C23.1049 9.50424 22.6639 9.79896 22.2925 10.1705C22.1056 10.3576 22.0005 10.6111 22 10.8755V14.0005H18V10.8755C18.0001 10.7441 17.9743 10.614 17.9241 10.4926C17.8739 10.3712 17.8003 10.2609 17.7075 10.168C17.3361 9.79646 16.8951 9.50174 16.4097 9.30066C15.9243 9.09959 15.4041 8.99609 14.8788 8.99609C14.3534 8.99609 13.8332 9.09959 13.3478 9.30066C12.8624 9.50174 12.4214 9.79646 12.05 10.168C11.9621 10.2556 11.8917 10.3591 11.8425 10.473L6.64375 22.3005C6.53161 22.5212 6.4335 22.7487 6.35 22.9817C6.05563 23.8054 5.9449 24.6835 6.02558 25.5544C6.10626 26.4254 6.37639 27.2682 6.81706 28.0238C7.25772 28.7794 7.85826 29.4295 8.5766 29.9285C9.29494 30.4276 10.1137 30.7636 10.9756 30.9129C11.8374 31.0623 12.7215 31.0214 13.5659 30.7931C14.4103 30.5648 15.1945 30.1547 15.8637 29.5914C16.5329 29.0282 17.0709 28.3254 17.4399 27.5324C17.8089 26.7393 18.0001 25.8752 18 25.0005V16.0005H22V25.0005C21.9996 25.8753 22.1904 26.7396 22.5592 27.5329C22.928 28.3261 23.4658 29.0292 24.1349 29.5927C24.804 30.1562 25.5882 30.5667 26.4326 30.7952C27.277 31.0237 28.1612 31.0648 29.0232 30.9156C29.8852 30.7664 30.7041 30.4306 31.4226 29.9316C32.1411 29.4325 32.7418 28.7824 33.1826 28.0268C33.6234 27.2712 33.8937 26.4283 33.9744 25.5573C34.0551 24.6862 33.9444 23.808 33.65 22.9842ZM13.5888 11.4692C13.9221 11.1885 14.3381 11.0244 14.7734 11.0018C15.2086 10.9793 15.6394 11.0995 16 11.3442V20.533C15.2193 19.8319 14.268 19.3484 13.2415 19.1307C12.215 18.9131 11.1493 18.9691 10.1513 19.293L13.5888 11.4692ZM12 29.0005C11.2089 29.0005 10.4355 28.7659 9.77772 28.3264C9.11992 27.8868 8.60723 27.2621 8.30448 26.5312C8.00173 25.8003 7.92252 24.9961 8.07686 24.2201C8.2312 23.4442 8.61216 22.7315 9.17157 22.1721C9.73098 21.6127 10.4437 21.2317 11.2196 21.0773C11.9956 20.923 12.7998 21.0022 13.5307 21.305C14.2616 21.6077 14.8864 22.1204 15.3259 22.7782C15.7654 23.436 16 24.2094 16 25.0005C16 26.0614 15.5786 27.0788 14.8284 27.8289C14.0783 28.5791 13.0609 29.0005 12 29.0005ZM24 11.343C24.3606 11.0982 24.7914 10.978 25.2266 11.0006C25.6619 11.0231 26.0778 11.1873 26.4112 11.468L29.8487 19.2905C28.8506 18.9667 27.7849 18.911 26.7584 19.1288C25.7318 19.3467 24.7806 19.8305 24 20.5317V11.343ZM28 29.0005C27.2089 29.0005 26.4355 28.7659 25.7777 28.3264C25.1199 27.8868 24.6072 27.2621 24.3045 26.5312C24.0017 25.8003 23.9225 24.9961 24.0769 24.2201C24.2312 23.4442 24.6122 22.7315 25.1716 22.1721C25.731 21.6127 26.4437 21.2317 27.2196 21.0773C27.9956 20.923 28.7998 21.0022 29.5307 21.305C30.2616 21.6077 30.8864 22.1204 31.3259 22.7782C31.7654 23.436 32 24.2094 32 25.0005C32 26.0614 31.5786 27.0788 30.8284 27.8289C30.0783 28.5791 29.0609 29.0005 28 29.0005Z" fill="#FEFEFE"/>
<path d="M50.336 27H48.32C47.968 27 47.792 26.832 47.792 26.496V14.472C47.792 14.296 47.704 14.208 47.528 14.208H44.792C44.456 14.208 44.288 14.04 44.288 13.704V12.072C44.288 11.736 44.456 11.568 44.792 11.568H53.864C54.2 11.568 54.368 11.736 54.368 12.072V13.704C54.368 14.04 54.2 14.208 53.864 14.208H51.128C50.936 14.208 50.84 14.296 50.84 14.472V26.496C50.84 26.832 50.672 27 50.336 27ZM64.9846 27H59.6806C58.4166 27 57.4406 26.664 56.7526 25.992C56.0646 25.32 55.7206 24.352 55.7206 23.088V18.672C55.7206 17.408 56.0646 16.44 56.7526 15.768C57.4406 15.096 58.4166 14.76 59.6806 14.76H61.5766C62.8406 14.76 63.8166 15.096 64.5046 15.768C65.1926 16.44 65.5366 17.408 65.5366 18.672V21.72C65.5366 22.056 65.3686 22.224 65.0326 22.224H59.0086C58.8166 22.224 58.7206 22.312 58.7206 22.488V23.016C58.7206 23.512 58.8246 23.872 59.0326 24.096C59.2566 24.304 59.6246 24.408 60.1366 24.408H64.9846C65.3206 24.408 65.4886 24.584 65.4886 24.936V26.52C65.4886 26.696 65.4486 26.824 65.3686 26.904C65.3046 26.968 65.1766 27 64.9846 27ZM59.0086 20.184H62.2726C62.4486 20.184 62.5366 20.096 62.5366 19.92V18.768C62.5366 18.256 62.4326 17.896 62.2246 17.688C62.0166 17.48 61.6566 17.376 61.1446 17.376H60.1366C59.6246 17.376 59.2646 17.48 59.0566 17.688C58.8486 17.896 58.7446 18.256 58.7446 18.768V19.92C58.7446 20.096 58.8326 20.184 59.0086 20.184ZM76.844 27H71.54C70.276 27 69.3 26.664 68.612 25.992C67.924 25.32 67.58 24.352 67.58 23.088V18.672C67.58 17.408 67.924 16.44 68.612 15.768C69.3 15.096 70.276 14.76 71.54 14.76H73.436C74.7 14.76 75.676 15.096 76.364 15.768C77.052 16.44 77.396 17.408 77.396 18.672V21.72C77.396 22.056 77.228 22.224 76.892 22.224H70.868C70.676 22.224 70.58 22.312 70.58 22.488V23.016C70.58 23.512 70.684 23.872 70.892 24.096C71.116 24.304 71.484 24.408 71.996 24.408H76.844C77.18 24.408 77.348 24.584 77.348 24.936V26.52C77.348 26.696 77.308 26.824 77.228 26.904C77.164 26.968 77.036 27 76.844 27ZM70.868 20.184H74.132C74.308 20.184 74.396 20.096 74.396 19.92V18.768C74.396 18.256 74.292 17.896 74.084 17.688C73.876 17.48 73.516 17.376 73.004 17.376H71.996C71.484 17.376 71.124 17.48 70.916 17.688C70.708 17.896 70.604 18.256 70.604 18.768V19.92C70.604 20.096 70.692 20.184 70.868 20.184ZM86.2074 27H83.0634C82.7274 27 82.5274 26.832 82.4634 26.496L78.7434 12.12C78.6314 11.752 78.7914 11.568 79.2234 11.568H81.4794C81.7994 11.568 81.9914 11.736 82.0554 12.072L84.5754 23.88H84.6714L87.1914 12.072C87.2554 11.736 87.4474 11.568 87.7674 11.568H90.0234C90.4234 11.568 90.5834 11.752 90.5034 12.12L86.7834 26.496C86.7034 26.832 86.5114 27 86.2074 27ZM94.979 27H92.939C92.603 27 92.435 26.832 92.435 26.496V12.072C92.435 11.736 92.603 11.568 92.939 11.568H98.651C99.899 11.568 100.875 11.912 101.579 12.6C102.283 13.288 102.635 14.256 102.635 15.504V17.376C102.635 19.184 101.923 20.384 100.499 20.976V21.072L103.067 26.424C103.211 26.808 103.075 27 102.659 27H100.715C100.427 27 100.219 26.968 100.091 26.904C99.963 26.84 99.859 26.704 99.779 26.496L97.379 21.312H95.771C95.579 21.312 95.483 21.4 95.483 21.576V26.496C95.483 26.832 95.315 27 94.979 27ZM95.747 18.864H98.099C98.611 18.864 98.987 18.76 99.227 18.552C99.467 18.328 99.587 17.976 99.587 17.496V15.624C99.587 15.128 99.467 14.768 99.227 14.544C98.987 14.32 98.611 14.208 98.099 14.208H95.747C95.571 14.208 95.483 14.296 95.483 14.472V18.6C95.483 18.776 95.571 18.864 95.747 18.864Z" fill="#FEFEFE"/>
<defs>
<linearGradient id="paint0_linear_979_5964" x1="0" y1="20" x2="40" y2="20" gradientUnits="userSpaceOnUse">
<stop stop-color="#006272"/>
<stop offset="1" stop-color="#A9A87E"/>
</linearGradient>
<linearGradient id="paint1_linear_979_5964" x1="0" y1="20" x2="40" y2="20" gradientUnits="userSpaceOnUse">
<stop stop-color="#005B57"/>
<stop offset="1" stop-color="#170116"/>
</linearGradient>
</defs>
</svg>
